<svg id="SvgjsSvg1012" width="288" height="288" xmlns="http://www.w3.org/2000/svg" version="1.1" xmlns:xlink="http://www.w3.org/1999/xlink" xmlns:svgjs="http://svgjs.com/svgjs"><defs id="SvgjsDefs1013"></defs><g id="SvgjsG1014"><svg xmlns="http://www.w3.org/2000/svg" viewBox="0 0 32 32" width="288" height="288"><path d="M3 10a1 1 0 0 0-1 1v10a1 1 0 0 0 1 1h16.453a1 1 0 0 0 0-2H16v-8h3.453a1 1 0 0 0 0-2zm24.453 0a1 1 0 0 0 0 2H28v8h-.547a1 1 0 0 0 0 2H29a1 1 0 0 0 1-1V11a1 1 0 0 0-1-1z" color="#000" font-family="sans-serif" font-weight="400" overflow="visible" style="line-height:normal;font-variant-ligatures:normal;font-variant-position:normal;font-variant-caps:normal;font-variant-numeric:normal;font-variant-alternates:normal;font-feature-settings:normal;text-indent:0;text-align:start;text-decoration-line:none;text-decoration-style:solid;text-decoration-color:#000;text-transform:none;text-orientation:mixed;shape-padding:0;isolation:auto;mix-blend-mode:normal" fill="#ffff00" class="color000 svgShape"></path><path style="line-height:normal;font-variant-ligatures:normal;font-variant-position:normal;font-variant-caps:normal;font-variant-numeric:normal;font-variant-alternates:normal;font-feature-settings:normal;text-indent:0;text-align:start;text-decoration-line:none;text-decoration-style:solid;text-decoration-color:#000;text-transform:none;text-orientation:mixed;shape-padding:0;isolation:auto;mix-blend-mode:normal" d="M19.342 6a.999.999 0 1 0 0 2h3.112v16h-3.112a.999.999 0 1 0 0 2h7.972c1.352.02 1.352-2.02 0-2h-2.86V8h2.86c1.352.02 1.352-2.02 0-2z" color="#000" font-family="sans-serif" font-weight="400" overflow="visible" fill="#ffff00" class="color000 svgShape"></path></svg></g></svg>